<mxfile host="app.diagrams.net" modified="2021-07-13T12:55:03.499Z" agent="5.0 (Windows NT 10.0; Win64; x64) AppleWebKit/537.36 (KHTML, like Gecko) Chrome/91.0.4472.124 Safari/537.36" etag="F1nMe4jRCKruee0yA62E" version="14.8.4" type="github" pages="2">
  <diagram id="50vdpEqHSQIONBBDWfx-" name="Page-1">
    <mxGraphModel dx="716" dy="399" grid="0" gridSize="10" guides="1" tooltips="1" connect="1" arrows="1" fold="1" page="1" pageScale="1" pageWidth="850" pageHeight="1100" math="0" shadow="0">
      <root>
        <mxCell id="0" />
        <mxCell id="1" parent="0" />
        <mxCell id="LnVCwtnUMc33j0wBrYgl-6" value="&lt;b&gt;项&lt;br&gt;目&lt;br&gt;接&lt;br&gt;入&lt;/b&gt;" style="rounded=0;whiteSpace=wrap;html=1;fillColor=#d5e8d4;strokeColor=#82b366;align=left;" parent="1" vertex="1">
          <mxGeometry x="94" y="415.5" width="674" height="129" as="geometry" />
        </mxCell>
        <mxCell id="LnVCwtnUMc33j0wBrYgl-5" value="&lt;b&gt;支&lt;br&gt;撑&lt;br&gt;引&lt;br&gt;擎&lt;/b&gt;" style="rounded=0;whiteSpace=wrap;html=1;fillColor=#f5f5f5;strokeColor=#666666;align=left;fontColor=#333333;" parent="1" vertex="1">
          <mxGeometry x="94" y="284" width="674" height="132" as="geometry" />
        </mxCell>
        <mxCell id="LnVCwtnUMc33j0wBrYgl-4" value="&lt;b&gt;应&lt;br&gt;用&lt;br&gt;场&lt;br&gt;景&lt;/b&gt;" style="rounded=0;whiteSpace=wrap;html=1;fillColor=#dae8fc;strokeColor=#6c8ebf;align=left;" parent="1" vertex="1">
          <mxGeometry x="94" y="156" width="674" height="128" as="geometry" />
        </mxCell>
        <mxCell id="6rHVsAR3TMJm0vyoXPqP-4" value="蓝盾" style="rounded=0;whiteSpace=wrap;html=1;fillColor=#b1ddf0;strokeColor=#10739e;" parent="1" vertex="1">
          <mxGeometry x="410" y="190" width="120" height="60" as="geometry" />
        </mxCell>
        <mxCell id="6rHVsAR3TMJm0vyoXPqP-5" value="C/C++" style="rounded=0;whiteSpace=wrap;html=1;fillColor=#ffe6cc;strokeColor=#d79b00;" parent="1" vertex="1">
          <mxGeometry x="200" y="450" width="120" height="60" as="geometry" />
        </mxCell>
        <mxCell id="6rHVsAR3TMJm0vyoXPqP-6" value="Go" style="rounded=0;whiteSpace=wrap;html=1;fillColor=#dae8fc;strokeColor=#6c8ebf;" parent="1" vertex="1">
          <mxGeometry x="480" y="450" width="120" height="60" as="geometry" />
        </mxCell>
        <mxCell id="6rHVsAR3TMJm0vyoXPqP-7" value="JetBrain" style="rounded=0;whiteSpace=wrap;html=1;fillColor=#d5e8d4;strokeColor=#82b366;" parent="1" vertex="1">
          <mxGeometry x="270" y="190" width="120" height="60" as="geometry" />
        </mxCell>
        <mxCell id="6rHVsAR3TMJm0vyoXPqP-8" value="VSCode" style="rounded=0;whiteSpace=wrap;html=1;fillColor=#d0cee2;strokeColor=#56517e;" parent="1" vertex="1">
          <mxGeometry x="130" y="190" width="120" height="60" as="geometry" />
        </mxCell>
        <mxCell id="6rHVsAR3TMJm0vyoXPqP-9" value="TCoverage" style="rounded=0;whiteSpace=wrap;html=1;fillColor=#fad7ac;strokeColor=#b46504;" parent="1" vertex="1">
          <mxGeometry x="550" y="190" width="120" height="60" as="geometry" />
        </mxCell>
        <mxCell id="6rHVsAR3TMJm0vyoXPqP-10" value="Java" style="rounded=0;whiteSpace=wrap;html=1;fillColor=#fff2cc;strokeColor=#d6b656;" parent="1" vertex="1">
          <mxGeometry x="340" y="450" width="120" height="60" as="geometry" />
        </mxCell>
        <mxCell id="6rHVsAR3TMJm0vyoXPqP-15" value="" style="group;gradientColor=#b3b3b3;fillColor=#f5f5f5;strokeColor=#666666;" parent="1" vertex="1" connectable="0">
          <mxGeometry x="280" y="310" width="240" height="80" as="geometry" />
        </mxCell>
        <mxCell id="6rHVsAR3TMJm0vyoXPqP-2" value="Developer Testing Kits" style="rounded=0;whiteSpace=wrap;html=1;gradientColor=#b3b3b3;fillColor=#f5f5f5;strokeColor=#666666;" parent="6rHVsAR3TMJm0vyoXPqP-15" vertex="1">
          <mxGeometry width="240" height="20" as="geometry" />
        </mxCell>
        <mxCell id="6rHVsAR3TMJm0vyoXPqP-11" value="接入" style="rounded=0;whiteSpace=wrap;html=1;gradientColor=#97d077;fillColor=#d5e8d4;strokeColor=#82b366;" parent="6rHVsAR3TMJm0vyoXPqP-15" vertex="1">
          <mxGeometry y="20" width="60" height="60" as="geometry" />
        </mxCell>
        <mxCell id="6rHVsAR3TMJm0vyoXPqP-12" value="执行" style="rounded=0;whiteSpace=wrap;html=1;gradientColor=#ffa500;fillColor=#ffcd28;strokeColor=#d79b00;" parent="6rHVsAR3TMJm0vyoXPqP-15" vertex="1">
          <mxGeometry x="60" y="20" width="60" height="60" as="geometry" />
        </mxCell>
        <mxCell id="6rHVsAR3TMJm0vyoXPqP-13" value="覆盖率" style="rounded=0;whiteSpace=wrap;html=1;gradientColor=#d5739d;fillColor=#e6d0de;strokeColor=#996185;" parent="6rHVsAR3TMJm0vyoXPqP-15" vertex="1">
          <mxGeometry x="120" y="20" width="60" height="60" as="geometry" />
        </mxCell>
        <mxCell id="6rHVsAR3TMJm0vyoXPqP-14" value="效率" style="rounded=0;whiteSpace=wrap;html=1;gradientColor=#ffd966;fillColor=#fff2cc;strokeColor=#d6b656;" parent="6rHVsAR3TMJm0vyoXPqP-15" vertex="1">
          <mxGeometry x="180" y="20" width="60" height="60" as="geometry" />
        </mxCell>
        <mxCell id="6rHVsAR3TMJm0vyoXPqP-16" value="" style="shape=flexArrow;endArrow=classic;html=1;endWidth=131;endSize=7.5;width=87;gradientColor=#b3b3b3;fillColor=#f5f5f5;strokeColor=#666666;" parent="1" edge="1">
          <mxGeometry width="50" height="50" relative="1" as="geometry">
            <mxPoint x="401" y="300" as="sourcePoint" />
            <mxPoint x="401" y="260" as="targetPoint" />
          </mxGeometry>
        </mxCell>
        <mxCell id="6rHVsAR3TMJm0vyoXPqP-17" value="集成/自动化" style="edgeLabel;html=1;align=center;verticalAlign=middle;resizable=0;points=[];" parent="6rHVsAR3TMJm0vyoXPqP-16" vertex="1" connectable="0">
          <mxGeometry x="-0.25" y="-23" relative="1" as="geometry">
            <mxPoint x="-24" y="-3" as="offset" />
          </mxGeometry>
        </mxCell>
        <mxCell id="6rHVsAR3TMJm0vyoXPqP-18" value="" style="shape=flexArrow;endArrow=none;html=1;endWidth=131;endSize=7.5;width=87;startArrow=block;endFill=0;startWidth=131;startSize=7.5;gradientColor=#b3b3b3;fillColor=#f5f5f5;strokeColor=#666666;" parent="1" edge="1">
          <mxGeometry width="50" height="50" relative="1" as="geometry">
            <mxPoint x="399.5" y="440" as="sourcePoint" />
            <mxPoint x="399.5" y="400" as="targetPoint" />
          </mxGeometry>
        </mxCell>
        <mxCell id="6rHVsAR3TMJm0vyoXPqP-19" value="适配" style="edgeLabel;html=1;align=center;verticalAlign=middle;resizable=0;points=[];" parent="6rHVsAR3TMJm0vyoXPqP-18" vertex="1" connectable="0">
          <mxGeometry x="-0.25" y="-23" relative="1" as="geometry">
            <mxPoint x="-22" y="-9" as="offset" />
          </mxGeometry>
        </mxCell>
        <mxCell id="LnVCwtnUMc33j0wBrYgl-2" value="" style="endArrow=none;dashed=1;html=1;strokeWidth=10;dashPattern=1 2;fillColor=#dae8fc;strokeColor=#6c8ebf;" parent="1" edge="1">
          <mxGeometry width="50" height="50" relative="1" as="geometry">
            <mxPoint x="683" y="219.5" as="sourcePoint" />
            <mxPoint x="763" y="220" as="targetPoint" />
          </mxGeometry>
        </mxCell>
        <mxCell id="LnVCwtnUMc33j0wBrYgl-3" value="" style="endArrow=none;dashed=1;html=1;strokeWidth=10;dashPattern=1 2;fillColor=#dae8fc;strokeColor=#6c8ebf;" parent="1" edge="1">
          <mxGeometry width="50" height="50" relative="1" as="geometry">
            <mxPoint x="612" y="479.5" as="sourcePoint" />
            <mxPoint x="692" y="480" as="targetPoint" />
          </mxGeometry>
        </mxCell>
      </root>
    </mxGraphModel>
  </diagram>
  <diagram id="eRmc_rNsia_PUtB4VaQ3" name="Page-2">
    <mxGraphModel dx="865" dy="483" grid="0" gridSize="10" guides="0" tooltips="1" connect="1" arrows="1" fold="1" page="1" pageScale="1" pageWidth="850" pageHeight="1100" math="0" shadow="0">
      <root>
        <mxCell id="aMd7vXaurZSS_q-VD6Gx-0" />
        <mxCell id="aMd7vXaurZSS_q-VD6Gx-1" parent="aMd7vXaurZSS_q-VD6Gx-0" />
        <mxCell id="HUhFfcW3aGBWa1RV087A-17" value="" style="rounded=0;whiteSpace=wrap;html=1;fontColor=#333333;fillColor=#f5f5f5;strokeColor=none;" vertex="1" parent="aMd7vXaurZSS_q-VD6Gx-1">
          <mxGeometry x="250" y="100" width="400" height="340" as="geometry" />
        </mxCell>
        <mxCell id="HUhFfcW3aGBWa1RV087A-0" value="仓库(Repository)" style="rounded=0;whiteSpace=wrap;html=1;fillColor=#d5e8d4;strokeColor=#82b366;" vertex="1" parent="aMd7vXaurZSS_q-VD6Gx-1">
          <mxGeometry x="155" y="440" width="570" height="50" as="geometry" />
        </mxCell>
        <mxCell id="HUhFfcW3aGBWa1RV087A-1" value="依赖解析" style="rounded=0;whiteSpace=wrap;html=1;fillColor=#ffe6cc;strokeColor=#d79b00;" vertex="1" parent="aMd7vXaurZSS_q-VD6Gx-1">
          <mxGeometry x="250" y="130" width="330" height="40" as="geometry" />
        </mxCell>
        <mxCell id="HUhFfcW3aGBWa1RV087A-2" value="构建" style="rounded=0;whiteSpace=wrap;html=1;fillColor=#fff2cc;strokeColor=#d6b656;" vertex="1" parent="aMd7vXaurZSS_q-VD6Gx-1">
          <mxGeometry x="250" y="190" width="330" height="40" as="geometry" />
        </mxCell>
        <mxCell id="HUhFfcW3aGBWa1RV087A-3" value="单元测试" style="rounded=0;whiteSpace=wrap;html=1;fillColor=#dae8fc;strokeColor=#6c8ebf;" vertex="1" parent="aMd7vXaurZSS_q-VD6Gx-1">
          <mxGeometry x="250" y="260" width="330" height="30" as="geometry" />
        </mxCell>
        <mxCell id="HUhFfcW3aGBWa1RV087A-4" value="用例编写" style="rounded=0;whiteSpace=wrap;html=1;fillColor=#b0e3e6;strokeColor=#0e8088;" vertex="1" parent="aMd7vXaurZSS_q-VD6Gx-1">
          <mxGeometry x="250" y="290" width="110" height="60" as="geometry" />
        </mxCell>
        <mxCell id="HUhFfcW3aGBWa1RV087A-5" value="用例管理&lt;br&gt;(查看)" style="rounded=0;whiteSpace=wrap;html=1;fillColor=#b1ddf0;strokeColor=#10739e;" vertex="1" parent="aMd7vXaurZSS_q-VD6Gx-1">
          <mxGeometry x="360" y="290" width="110" height="60" as="geometry" />
        </mxCell>
        <mxCell id="HUhFfcW3aGBWa1RV087A-6" value="用例管理&lt;br&gt;执行" style="rounded=0;whiteSpace=wrap;html=1;fillColor=#d0cee2;strokeColor=#56517e;" vertex="1" parent="aMd7vXaurZSS_q-VD6Gx-1">
          <mxGeometry x="470" y="290" width="110" height="60" as="geometry" />
        </mxCell>
        <mxCell id="HUhFfcW3aGBWa1RV087A-7" value="质量度量 (覆盖率,&amp;nbsp;通过率 等)" style="rounded=0;whiteSpace=wrap;html=1;fillColor=#bac8d3;strokeColor=#23445d;" vertex="1" parent="aMd7vXaurZSS_q-VD6Gx-1">
          <mxGeometry x="250" y="370" width="330" height="40" as="geometry" />
        </mxCell>
        <mxCell id="HUhFfcW3aGBWa1RV087A-8" value="单元测试工具体系" style="rounded=0;whiteSpace=wrap;html=1;fillColor=#dae8fc;strokeColor=#6c8ebf;" vertex="1" parent="aMd7vXaurZSS_q-VD6Gx-1">
          <mxGeometry x="155" y="50" width="570" height="50" as="geometry" />
        </mxCell>
        <mxCell id="HUhFfcW3aGBWa1RV087A-10" value="统一&lt;br&gt;接口" style="rounded=0;whiteSpace=wrap;html=1;gradientColor=#ffa500;fillColor=#ffcd28;strokeColor=#d79b00;" vertex="1" parent="aMd7vXaurZSS_q-VD6Gx-1">
          <mxGeometry x="200" y="130" width="40" height="280" as="geometry" />
        </mxCell>
        <mxCell id="HUhFfcW3aGBWa1RV087A-11" value="工具&lt;br&gt;平台&lt;br&gt;集成" style="rounded=0;whiteSpace=wrap;html=1;gradientColor=#ffd966;fillColor=#fff2cc;strokeColor=#d6b656;" vertex="1" parent="aMd7vXaurZSS_q-VD6Gx-1">
          <mxGeometry x="115" y="130" width="40" height="280" as="geometry" />
        </mxCell>
        <mxCell id="HUhFfcW3aGBWa1RV087A-13" value="" style="shape=flexArrow;endArrow=classic;html=1;strokeWidth=1;endWidth=115.29411764705883;endSize=4.571428571428571;width=28.095238095238095;gradientColor=#97d077;fillColor=#d5e8d4;strokeColor=#82b366;" edge="1" parent="aMd7vXaurZSS_q-VD6Gx-1">
          <mxGeometry width="50" height="50" relative="1" as="geometry">
            <mxPoint x="196" y="280" as="sourcePoint" />
            <mxPoint x="160" y="280" as="targetPoint" />
          </mxGeometry>
        </mxCell>
        <mxCell id="HUhFfcW3aGBWa1RV087A-14" value="度量&lt;br&gt;数据" style="rounded=0;whiteSpace=wrap;html=1;gradientColor=#b3b3b3;fillColor=#f5f5f5;strokeColor=#666666;" vertex="1" parent="aMd7vXaurZSS_q-VD6Gx-1">
          <mxGeometry x="660" y="130" width="40" height="280" as="geometry" />
        </mxCell>
        <mxCell id="HUhFfcW3aGBWa1RV087A-15" value="看板&lt;br&gt;报表" style="rounded=0;whiteSpace=wrap;html=1;gradientColor=#97d077;fillColor=#d5e8d4;strokeColor=#82b366;" vertex="1" parent="aMd7vXaurZSS_q-VD6Gx-1">
          <mxGeometry x="740" y="130" width="40" height="280" as="geometry" />
        </mxCell>
        <mxCell id="HUhFfcW3aGBWa1RV087A-16" value="" style="shape=flexArrow;endArrow=classic;html=1;strokeWidth=1;endWidth=115.29411764705883;endSize=4.571428571428571;width=28.095238095238095;gradientColor=#7ea6e0;fillColor=#dae8fc;strokeColor=#6c8ebf;" edge="1" parent="aMd7vXaurZSS_q-VD6Gx-1">
          <mxGeometry width="50" height="50" relative="1" as="geometry">
            <mxPoint x="704" y="274" as="sourcePoint" />
            <mxPoint x="736" y="274" as="targetPoint" />
          </mxGeometry>
        </mxCell>
        <mxCell id="HUhFfcW3aGBWa1RV087A-20" value="" style="shape=flexArrow;endArrow=classic;html=1;strokeWidth=1;entryX=0.915;entryY=0.909;entryDx=0;entryDy=0;entryPerimeter=0;startWidth=22.6984126984127;endWidth=27.95024337479719;startSize=10.20952380952381;endSize=8.944186046511629;width=25.813953488372093;dashed=1;fillColor=#dae8fc;strokeColor=#6c8ebf;" edge="1" parent="aMd7vXaurZSS_q-VD6Gx-1" target="HUhFfcW3aGBWa1RV087A-17">
          <mxGeometry width="50" height="50" relative="1" as="geometry">
            <mxPoint x="615" y="133" as="sourcePoint" />
            <mxPoint x="490" y="220" as="targetPoint" />
          </mxGeometry>
        </mxCell>
        <mxCell id="HUhFfcW3aGBWa1RV087A-23" value="开&lt;br&gt;&lt;br&gt;发&lt;br&gt;&lt;br&gt;流&lt;br&gt;&lt;br&gt;程" style="edgeLabel;html=1;align=center;verticalAlign=middle;resizable=0;points=[];labelBackgroundColor=none;" vertex="1" connectable="0" parent="HUhFfcW3aGBWa1RV087A-20">
          <mxGeometry x="-0.1477" y="-7" relative="1" as="geometry">
            <mxPoint x="7" y="18" as="offset" />
          </mxGeometry>
        </mxCell>
      </root>
    </mxGraphModel>
  </diagram>
</mxfile>
